<svg width="140" height="35" viewBox="0 0 140 35" fill="none" xmlns="http://www.w3.org/2000/svg">
<path d="M1.41822 15.3764C2.36315 13.5317 3.65275 12.0979 5.2837 11.075C6.91466 10.0521 8.73031 9.54067 10.7323 9.54067C12.2132 9.54067 13.6727 9.88048 15.1107 10.5566C16.5503 11.2345 17.6948 12.1343 18.5441 13.2578V1.75796H23.272V33.747H18.5441V30.1582C17.7756 31.3111 16.7136 32.2629 15.358 33.0119C14.0008 33.7609 12.4457 34.1354 10.6911 34.1354C8.71712 34.1354 6.91466 33.61 5.2837 32.5577C3.65275 31.5053 2.3648 30.0368 1.41822 28.1488C0.473291 26.2625 0 24.1231 0 21.7305C0 19.338 0.473291 17.2211 1.41822 15.3764ZM17.5777 17.5384C16.9329 16.3282 16.0902 15.4059 15.0497 14.7713C14.0074 14.1385 12.8844 13.8195 11.6772 13.8195C10.4701 13.8195 9.34708 14.1299 8.30485 14.7488C7.26262 15.3695 6.41993 16.2762 5.77678 17.4725C5.13199 18.6688 4.81041 20.0887 4.81041 21.7305C4.81041 23.3724 5.13199 24.8148 5.77678 26.0527C6.41993 27.2923 7.27086 28.2355 8.32629 28.8839C9.38171 29.5323 10.4981 29.8565 11.6772 29.8565C12.8564 29.8565 14.0074 29.5392 15.0497 28.9047C16.0919 28.2719 16.9346 27.3409 17.5777 26.1169C18.2209 24.8928 18.5441 23.4591 18.5441 21.8155C18.5441 20.1719 18.2209 18.7468 17.5777 17.5349V17.5384Z" fill="#111C0C"/>
<path d="M67.2782 10.7074C68.6898 11.4859 69.793 12.6388 70.5879 14.1662C71.3828 15.6936 71.7802 17.5383 71.7802 19.7003V33.7504H67.133V20.4354C67.133 18.3029 66.6251 16.668 65.6109 15.5289C64.5967 14.3916 63.2115 13.8212 61.4585 13.8212C59.7055 13.8212 58.3137 14.3899 57.2846 15.5289C56.2572 16.668 55.7427 18.3029 55.7427 20.4354V33.7504H51.056V9.92897H55.7427V12.6527C56.5096 11.6731 57.4908 10.9085 58.6831 10.3624C59.8754 9.81455 61.1435 9.54062 62.4859 9.54062C64.2669 9.54062 65.8649 9.92897 67.2765 10.7074H67.2782Z" fill="#111C0C"/>
<path d="M98.3438 23.6757H81.0333C81.1702 25.5776 81.8413 27.105 83.0485 28.258C84.254 29.4109 85.7349 29.9865 87.4895 29.9865C90.011 29.9865 91.792 28.8769 92.8342 26.6577H97.892C97.206 28.8474 95.9658 30.6419 94.17 32.0392C92.3741 33.4366 90.1462 34.1353 87.4878 34.1353C85.3226 34.1353 83.3816 33.6239 81.6698 32.601C79.9564 31.5781 78.6124 30.1373 77.6394 28.2788C76.6665 26.4202 76.18 24.2652 76.18 21.8154C76.18 19.3657 76.6533 17.2107 77.5982 15.3521C78.5431 13.4935 79.874 12.0597 81.5874 11.0507C83.3008 10.0417 85.2682 9.53717 87.4878 9.53717C89.7075 9.53717 91.5314 10.0278 93.2036 11.0074C94.8758 11.9869 96.1769 13.3635 97.1103 15.1354C98.0421 16.9073 98.5087 18.9461 98.5087 21.252C98.5087 22.1448 98.4543 22.9528 98.3438 23.6723V23.6757ZM93.6159 19.6986C93.5878 17.8833 92.9711 16.4287 91.7656 15.333C90.5585 14.2373 89.0644 13.6895 87.2834 13.6895C85.6656 13.6895 84.282 14.2304 83.1309 15.3105C81.9799 16.3906 81.2938 17.8539 81.0745 19.6986H93.6159Z" fill="#111C0C"/>
<path d="M108.583 13.9495V27.1345C108.583 28.0274 108.781 28.6689 109.18 29.059C109.577 29.4473 110.255 29.6432 111.215 29.6432H114.093V33.7504H110.392C108.281 33.7504 106.664 33.232 105.541 32.1935C104.416 31.1568 103.855 29.4699 103.855 27.1363V13.9512H101.182V9.93072H103.855V4.00657H108.583V9.92899H114.093V13.9495H108.583Z" fill="#111C0C"/>
<path d="M122.44 32.6027C120.714 31.5798 119.357 30.1391 118.37 28.2805C117.384 26.4219 116.89 24.2669 116.89 21.8172C116.89 19.3674 117.396 17.2505 118.412 15.3764C119.426 13.5039 120.809 12.0632 122.564 11.0542C124.319 10.0451 126.278 9.54062 128.445 9.54062C130.612 9.54062 132.571 10.0451 134.325 11.0542C136.08 12.0632 137.464 13.5039 138.478 15.3764C139.492 17.2505 140 19.3969 140 21.8172C140 24.2374 139.479 26.3855 138.437 28.258C137.394 30.1321 135.976 31.5798 134.18 32.6027C132.384 33.6256 130.404 34.137 128.239 34.137C126.073 34.137 124.169 33.6256 122.44 32.6027ZM131.631 28.9497C132.686 28.3446 133.542 27.4362 134.2 26.226C134.858 25.0159 135.186 23.5457 135.186 21.8172C135.186 20.0886 134.871 18.6254 134.24 17.4291C133.608 16.2328 132.774 15.333 131.731 14.7279C130.689 14.1229 129.566 13.8195 128.359 13.8195C127.152 13.8195 126.035 14.1229 125.008 14.7279C123.981 15.333 123.164 16.2345 122.561 17.4291C121.957 18.6254 121.655 20.0869 121.655 21.8172C121.655 24.3831 122.279 26.363 123.527 27.7604C124.774 29.1578 126.344 29.8565 128.235 29.8565C129.441 29.8565 130.572 29.5531 131.628 28.948L131.631 28.9497Z" fill="#111C0C"/>
<path d="M27.7903 14.4653C30.0327 12.1078 33.6755 12.1078 35.9179 14.4653L44.849 23.8547L36.7213 32.3994L27.7903 23.01C25.5479 20.6526 25.5479 16.8228 27.7903 14.4653Z" fill="#111C0C"/>
<path d="M36.7205 32.3995L28.5929 23.8547L37.5239 14.4653C39.7663 12.1079 43.4092 12.1079 45.6515 14.4653C47.8939 16.8228 47.8939 20.6526 45.6515 23.0101L36.7205 32.3995Z" fill="#111C0C"/>
<path d="M124.364 0.911296C124.201 0.467468 123.726 0.24673 123.305 0.418261C122.883 0.589792 122.673 1.08864 122.837 1.53246L125.059 7.57175C125.222 8.01558 125.697 8.23632 126.118 8.06479C126.54 7.89326 126.75 7.39441 126.586 6.95058L124.364 0.911296Z" fill="#111C0C"/>
<path d="M131.401 7.22221C131.253 7.67214 131.48 8.16241 131.908 8.31727C132.335 8.47212 132.801 8.23292 132.949 7.78299L135.049 1.37545C135.196 0.925523 134.969 0.435249 134.541 0.280394C134.114 0.125539 133.648 0.364743 133.5 0.814673L131.401 7.22221Z" fill="#111C0C"/>
<path d="M129.825 3.51247C129.825 3.03658 129.458 2.6508 129.006 2.6508C128.554 2.6508 128.188 3.03658 128.188 3.51247V6.4494C128.188 6.92529 128.554 7.31107 129.006 7.31107C129.458 7.31107 129.825 6.92529 129.825 6.4494V3.51247Z" fill="#111C0C"/>
</svg>
