<?xml version="1.0" encoding="UTF-8"?>
<svg id="Layer_2" data-name="Layer 2" xmlns="http://www.w3.org/2000/svg" xmlns:xlink="http://www.w3.org/1999/xlink" viewBox="0 0 206.81 206.81">
  <defs>
    <style>
      .cls-1 {
        fill: currentColor;
      }

      .cls-2 {
        fill: none;
      }

      .cls-3 {
        clip-path: url(#clippath);
      }
    </style>
    <clipPath id="clippath">
      <path class="cls-2" d="M103.4,0c57.11,0,103.4,46.3,103.4,103.4s-46.3,103.4-103.4,103.4c-2.06,0-4.11-.06-6.14-.18C43.01,203.45,0,158.45,0,103.4S46.3,0,103.4,0Z"/>
    </clipPath>
  </defs>
  <g id="Layer_1-2" data-name="Layer 1">
    <g class="cls-3">
      <path class="cls-1" d="M37.17,182.81v-67.32l11.17-10.55,12.43,11.06v81.64c-4.26-1.93-9.04-4.45-14.04-7.73-3.61-2.37-6.79-4.78-9.55-7.09Z"/>
      <path class="cls-1" d="M37.17,23.57v70.34l11.17,11.03,12.43-11.56V9.17c-3.5,1.73-7.18,3.72-11,6.01-4.66,2.79-8.86,5.63-12.59,8.39Z"/>
      <path class="cls-1" d="M169.87,182.79v-67.32l-11.17-10.55-12.43,11.06v81.64c3.62-1.71,7.56-3.8,11.69-6.36,4.57-2.83,8.53-5.73,11.9-8.46Z"/>
      <path class="cls-1" d="M169.87,23.55v70.34l-11.17,11.03-12.43-11.56V9.28c3.21,1.52,6.6,3.27,10.11,5.31,5.1,2.96,9.59,6.02,13.48,8.96Z"/>
      <path class="cls-1" d="M182.87,169.57v-29.14l22.87-22.09c-1.02,7-3.13,16.48-7.77,26.96-4.75,10.71-10.51,18.77-15.09,24.27Z"/>
      <path class="cls-1" d="M183.55,38.06c-.22,9.98-.45,19.96-.67,29.94l22.87,22.09c-.82-7.01-2.71-16.69-7.28-27.45-4.63-10.91-10.39-19.09-14.91-24.58Z"/>
      <path class="cls-1" d="M23.63,168.76v-29.14L.77,117.53c1.02,7,3.13,16.48,7.77,26.96,4.75,10.71,10.51,18.77,15.09,24.27Z"/>
      <path class="cls-1" d="M23.63,38.05v29.14S.77,89.28.77,89.28c1.02-7,3.13-16.48,7.77-26.96,4.75-10.71,10.51-18.77,15.09-24.27Z"/>
      <path class="cls-1" d="M97.11,116.55l-25.19,24v61.37c3.08,1.01,6.52,1.97,10.29,2.77,5.55,1.17,10.64,1.72,15.06,1.94-.05-30.03-.11-60.05-.16-90.08Z"/>
      <path class="cls-1" d="M109.26,116.55l25.19,24v61.37c-3.63,1.21-7.88,2.38-12.67,3.26-4.66.86-8.93,1.28-12.67,1.45.05-30.03.11-60.05.16-90.08Z"/>
      <path class="cls-1" d="M97.33,90.08l-25.19-24V4.71c3.06-1.29,6.91-2.6,11.44-3.52C88.98.1,93.75-.11,97.49,0c-.05,30.03-.11,60.05-.16,90.08Z"/>
      <path class="cls-1" d="M109.48,90.08l25.19-24V4.71c-3.75-1.25-8.15-2.46-13.14-3.35C117.06.56,112.95.17,109.32,0c.05,30.03.11,60.05.16,90.08Z"/>
    </g>
  </g>
</svg>